<svg width="24" height="24" viewBox="0 0 24 24" fill="none" xmlns="http://www.w3.org/2000/svg">
<rect width="24" height="24" rx="12" fill="#0052FF"/>
<path d="M12 16.5C14.4853 16.5 16.5 14.4853 16.5 12C16.5 9.51472 14.4853 7.5 12 7.5C9.51472 7.5 7.5 9.51472 7.5 12C7.5 14.4853 9.51472 16.5 12 16.5Z" stroke="white" stroke-width="1.5"/>
<path d="M10.5 12C10.5 11.1716 11.1716 10.5 12 10.5H12.75C13.1642 10.5 13.5 10.8358 13.5 11.25V12.75C13.5 13.1642 13.1642 13.5 12.75 13.5H12C11.1716 13.5 10.5 12.8284 10.5 12Z" fill="white"/>
</svg>



