<svg width="24" height="24" viewBox="0 0 24 24" fill="none" xmlns="http://www.w3.org/2000/svg">
<path d="M21.1758 3L12.8564 9.27344L14.4492 5.48438L21.1758 3Z" fill="#E17726" stroke="#E17726" stroke-width="0.25" stroke-linecap="round" stroke-linejoin="round"/>
<path d="M2.82422 3L11.0801 9.32812L9.55078 5.48438L2.82422 3Z" fill="#E27625" stroke="#E27625" stroke-width="0.25" stroke-linecap="round" stroke-linejoin="round"/>
<path d="M18.1387 16.3125L15.9023 19.6875L20.6484 20.9531L21.9844 16.3828L18.1387 16.3125Z" fill="#E27625" stroke="#E27625" stroke-width="0.25" stroke-linecap="round" stroke-linejoin="round"/>
<path d="M2.02344 16.3828L3.35156 20.9531L8.09766 19.6875L5.86133 16.3125L2.02344 16.3828Z" fill="#E27625" stroke="#E27625" stroke-width="0.25" stroke-linecap="round" stroke-linejoin="round"/>
<path d="M7.83984 10.5938L6.46875 12.6562L11.1797 12.8906L11.0156 7.82812L7.83984 10.5938Z" fill="#E27625" stroke="#E27625" stroke-width="0.25" stroke-linecap="round" stroke-linejoin="round"/>
<path d="M16.1602 10.5938L12.9492 7.77344L12.8555 12.8906L17.5312 12.6562L16.1602 10.5938Z" fill="#E27625" stroke="#E27625" stroke-width="0.25" stroke-linecap="round" stroke-linejoin="round"/>
<path d="M8.09766 19.6875L11.0039 18.2578L8.47266 16.418L8.09766 19.6875Z" fill="#E27625" stroke="#E27625" stroke-width="0.25" stroke-linecap="round" stroke-linejoin="round"/>
<path d="M12.9961 18.2578L15.9023 19.6875L15.5273 16.418L12.9961 18.2578Z" fill="#E27625" stroke="#E27625" stroke-width="0.25" stroke-linecap="round" stroke-linejoin="round"/>
<path d="M15.9023 19.6875L12.9961 18.2578L13.2188 20.1562L13.1953 20.8984L15.9023 19.6875Z" fill="#D5BFB2" stroke="#D5BFB2" stroke-width="0.25" stroke-linecap="round" stroke-linejoin="round"/>
<path d="M8.09766 19.6875L10.8047 20.8984L10.7812 20.1562L11.0039 18.2578L8.09766 19.6875Z" fill="#D5BFB2" stroke="#D5BFB2" stroke-width="0.25" stroke-linecap="round" stroke-linejoin="round"/>
<path d="M10.8398 15.0234L8.39062 14.2734L10.1367 13.4766L10.8398 15.0234Z" fill="#233447" stroke="#233447" stroke-width="0.25" stroke-linecap="round" stroke-linejoin="round"/>
<path d="M13.1602 15.0234L13.8633 13.4766L15.6094 14.2734L13.1602 15.0234Z" fill="#233447" stroke="#233447" stroke-width="0.25" stroke-linecap="round" stroke-linejoin="round"/>
<path d="M8.09766 19.6875L8.48828 16.3125L5.86133 16.3828L8.09766 19.6875Z" fill="#CC6228" stroke="#CC6228" stroke-width="0.25" stroke-linecap="round" stroke-linejoin="round"/>
<path d="M15.5117 16.3125L15.9023 19.6875L18.1387 16.3828L15.5117 16.3125Z" fill="#CC6228" stroke="#CC6228" stroke-width="0.25" stroke-linecap="round" stroke-linejoin="round"/>
<path d="M17.5312 12.6562L12.8555 12.8906L13.1641 15.0234L13.8672 13.4766L15.6133 14.2734L17.5312 12.6562Z" fill="#CC6228" stroke="#CC6228" stroke-width="0.25" stroke-linecap="round" stroke-linejoin="round"/>
<path d="M8.39062 14.2734L10.1367 13.4766L10.8398 15.0234L11.1484 12.8906L6.46875 12.6562L8.39062 14.2734Z" fill="#CC6228" stroke="#CC6228" stroke-width="0.25" stroke-linecap="round" stroke-linejoin="round"/>
<path d="M6.46875 12.6562L8.47266 16.418L8.39062 14.2734L6.46875 12.6562Z" fill="#E27525" stroke="#E27525" stroke-width="0.25" stroke-linecap="round" stroke-linejoin="round"/>
<path d="M15.6133 14.2734L15.5273 16.418L17.5312 12.6562L15.6133 14.2734Z" fill="#E27525" stroke="#E27525" stroke-width="0.25" stroke-linecap="round" stroke-linejoin="round"/>
<path d="M11.1484 12.8906L10.8398 15.0234L11.2305 16.9922L11.3242 14.0859L11.1484 12.8906Z" fill="#E27525" stroke="#E27525" stroke-width="0.25" stroke-linecap="round" stroke-linejoin="round"/>
<path d="M12.8555 12.8906L12.6797 14.0859L12.7734 16.9922L13.1641 15.0234L12.8555 12.8906Z" fill="#E27525" stroke="#E27525" stroke-width="0.25" stroke-linecap="round" stroke-linejoin="round"/>
<path d="M13.1641 15.0234L12.7734 16.9922L13.0195 17.1562L15.5273 16.418L15.6133 14.2734L13.1641 15.0234Z" fill="#F5841F" stroke="#F5841F" stroke-width="0.25" stroke-linecap="round" stroke-linejoin="round"/>
<path d="M8.39062 14.2734L8.47266 16.418L10.9805 17.1562L11.2266 16.9922L10.8398 15.0234L8.39062 14.2734Z" fill="#F5841F" stroke="#F5841F" stroke-width="0.25" stroke-linecap="round" stroke-linejoin="round"/>
<path d="M13.1953 20.8984L13.2188 20.1562L13.0195 19.9805H10.9805L10.7812 20.1562L10.8047 20.8984L8.09766 19.6875L9.05859 20.4727L10.957 21.7383H13.043L14.9414 20.4727L15.9023 19.6875L13.1953 20.8984Z" fill="#C0AC9D" stroke="#C0AC9D" stroke-width="0.25" stroke-linecap="round" stroke-linejoin="round"/>
<path d="M13.0195 17.1562L12.7734 16.9922H11.2266L10.9805 17.1562L10.7812 20.1562L10.9805 19.9805H13.0195L13.2188 20.1562L13.0195 17.1562Z" fill="#161616" stroke="#161616" stroke-width="0.25" stroke-linecap="round" stroke-linejoin="round"/>
<path d="M21.5391 9.65625L22.2188 6.39844L21.1758 3L13.0195 9.04688L16.1602 11.7891L20.5547 12.9844L21.5859 11.7656L21.1719 11.4688L21.8047 10.8867L21.293 10.4883L21.9258 10.0078L21.5391 9.65625Z" fill="#763E1A" stroke="#763E1A" stroke-width="0.25" stroke-linecap="round" stroke-linejoin="round"/>
<path d="M1.78125 6.39844L2.46094 9.65625L2.07422 10.0078L2.70703 10.4883L2.19531 10.8867L2.82812 11.4688L2.41406 11.7656L3.44531 12.9844L7.83984 11.7891L10.9805 9.04688L2.82422 3L1.78125 6.39844Z" fill="#763E1A" stroke="#763E1A" stroke-width="0.25" stroke-linecap="round" stroke-linejoin="round"/>
<path d="M20.5547 12.9844L16.1602 11.7891L17.5312 12.6562L15.5273 16.418L18.1387 16.3828H21.9844L20.5547 12.9844Z" fill="#F5841F" stroke="#F5841F" stroke-width="0.25" stroke-linecap="round" stroke-linejoin="round"/>
<path d="M7.83984 11.7891L3.44531 12.9844L2.02344 16.3828H5.86133L8.47266 16.418L6.46875 12.6562L7.83984 11.7891Z" fill="#F5841F" stroke="#F5841F" stroke-width="0.25" stroke-linecap="round" stroke-linejoin="round"/>
<path d="M12.8555 12.8906L13.0195 9.04688L14.4492 5.48438H9.55078L10.9805 9.04688L11.1484 12.8906L11.2266 14.0859V16.9922H12.7734V14.0859L12.8555 12.8906Z" fill="#F5841F" stroke="#F5841F" stroke-width="0.25" stroke-linecap="round" stroke-linejoin="round"/>
</svg>



